<svg width="37" height="38" viewBox="0 0 37 38" fill="none" xmlns="http://www.w3.org/2000/svg">
<rect y="0.861328" width="36.2768" height="36.2768" rx="4" fill="#CFDDD8"/>
<path d="M28.2768 28.0776L22.6128 22.4136C23.9739 20.7796 24.6526 18.6838 24.5078 16.5621C24.363 14.4404 23.4058 12.4562 21.8353 11.0223C20.2647 9.58838 18.2019 8.81515 16.0758 8.86346C13.9497 8.91177 11.9241 9.77789 10.4203 11.2817C8.91657 12.7854 8.05044 14.811 8.00213 16.9371C7.95383 19.0632 8.72705 21.1261 10.161 22.6966C11.5949 24.2671 13.579 25.2243 15.7007 25.3691C17.8224 25.514 19.9183 24.8352 21.5523 23.4741L27.2163 29.1381L28.2768 28.0776ZM9.52682 17.1381C9.52682 15.8031 9.9227 14.4981 10.6644 13.388C11.4061 12.278 12.4603 11.4129 13.6937 10.902C14.9271 10.3911 16.2843 10.2574 17.5937 10.5178C18.9031 10.7783 20.1058 11.4212 21.0498 12.3652C21.9938 13.3092 22.6367 14.5119 22.8971 15.8213C23.1576 17.1307 23.0239 18.4879 22.513 19.7213C22.0021 20.9547 21.137 22.0089 20.0269 22.7506C18.9169 23.4923 17.6118 23.8881 16.2768 23.8881C14.4872 23.8862 12.7715 23.1744 11.506 21.9089C10.2406 20.6435 9.52881 18.9277 9.52682 17.1381Z" fill="black"/>
</svg>
