<svg width="25" height="24" viewBox="0 0 25 24" fill="none" xmlns="http://www.w3.org/2000/svg">
<path d="M11.4704 6.027V4.5H9.22042C9.0215 4.5 8.83074 4.42098 8.69008 4.28033C8.54943 4.13968 8.47042 3.94891 8.47042 3.75C8.47042 3.55109 8.54943 3.36032 8.69008 3.21967C8.83074 3.07902 9.0215 3 9.22042 3H15.2204C15.4193 3 15.6101 3.07902 15.7507 3.21967C15.8914 3.36032 15.9704 3.55109 15.9704 3.75C15.9704 3.94891 15.8914 4.13968 15.7507 4.28033C15.6101 4.42098 15.4193 4.5 15.2204 4.5H12.9704V6.027C14.4093 6.12968 15.8117 6.52776 17.0899 7.19642C18.3682 7.86508 19.495 8.78996 20.3999 9.91337C21.3049 11.0368 21.9687 12.3346 22.3499 13.726C22.7311 15.1173 22.8214 16.5722 22.6154 18H1.82542C1.61938 16.5722 1.70977 15.1173 2.09095 13.726C2.47212 12.3346 3.1359 11.0368 4.04089 9.91337C4.94587 8.78996 6.07263 7.86508 7.35089 7.19642C8.62915 6.52776 10.0315 6.12968 11.4704 6.027ZM3.22042 16.5H21.2204C21.2204 15.3181 20.9876 14.1478 20.5353 13.0558C20.083 11.9639 19.4201 10.9718 18.5844 10.136C17.7486 9.30031 16.7565 8.63738 15.6646 8.18508C14.5726 7.73279 13.4023 7.5 12.2204 7.5C11.0385 7.5 9.86819 7.73279 8.77626 8.18508C7.68433 8.63738 6.69218 9.30031 5.85645 10.136C5.02073 10.9718 4.35779 11.9639 3.9055 13.0558C3.45321 14.1478 3.22042 15.3181 3.22042 16.5ZM2.47042 19.5H21.9704C22.1693 19.5 22.3601 19.579 22.5007 19.7197C22.6414 19.8603 22.7204 20.0511 22.7204 20.25C22.7204 20.4489 22.6414 20.6397 22.5007 20.7803C22.3601 20.921 22.1693 21 21.9704 21H2.47042C2.2715 21 2.08074 20.921 1.94009 20.7803C1.79943 20.6397 1.72042 20.4489 1.72042 20.25C1.72042 20.0511 1.79943 19.8603 1.94009 19.7197C2.08074 19.579 2.2715 19.5 2.47042 19.5Z" fill="black"/>
</svg>
