<svg width="16" height="16" viewBox="0 0 16 16" fill="none" xmlns="http://www.w3.org/2000/svg">
<path d="M9.41398 6.98L8.00065 8.39333L6.58065 6.98L5.64065 7.92L7.06065 9.33333L5.64732 10.7467L6.58732 11.6867L8.00065 10.2733L9.41398 11.6867L10.354 10.7467L8.94065 9.33333L10.354 7.92L9.41398 6.98ZM10.334 2.66667L9.66732 2H6.33398L5.66732 2.66667H3.33398V4H12.6673V2.66667H10.334ZM4.00065 12.6667C4.00065 13.4 4.60065 14 5.33398 14H10.6673C11.4007 14 12.0007 13.4 12.0007 12.6667V4.66667H4.00065V12.6667ZM5.33398 6H10.6673V12.6667H5.33398V6Z" fill="black"/>
</svg>
