<svg width="57" height="68" viewBox="0 0 57 68" fill="none" xmlns="http://www.w3.org/2000/svg">
<path d="M5.00011 17.7584C2.37172 22.5895 4.66268 28.569 15.0025 48.5508C25.3424 68.5327 27.9953 50.9942 27.9953 48.5508C27.9953 38.3999 12.726 28.0307 17.4312 24.8013C22.1364 21.572 24.5025 30.3066 29.5541 29.6325C34.1923 29.0135 31.3585 22.8753 39.4492 22.8753C47.5399 22.8753 35.2861 31.4038 36.3643 37.1993C37.2956 42.2051 38.2289 44.3466 42.5342 42.2051C50.7179 38.1342 55.8634 24.8013 49.5771 13.9907C43.2909 3.18013 29.5541 17.7584 29.5541 17.7584C24.6659 19.6977 23.8671 17.7584 17.4312 13.9907C10.9953 10.2231 7.62849 12.9272 5.00011 17.7584Z" fill="#E88C0E"/>
</svg>
